<svg xmlns="http://www.w3.org/2000/svg" viewBox="0 0 24 24"><path fill-rule="evenodd" clip-rule="evenodd" d="M18.943 5.514a5.491 5.491 0 0 1 1.026 6.33c-.09.182-.05.358.039.447l2.505 2.505a1.29 1.29 0 0 1 0 1.824l-.221.221a1.29 1.29 0 0 1-1.824 0l-2.505-2.505c-.09-.09-.266-.13-.447-.038a5.49 5.49 0 0 1-6.33-1.026 5.491 5.491 0 0 1 0-7.758 5.49 5.49 0 0 1 7.757 0Zm-1.702 6.056c1.2-1.2 1.2-3.153 0-4.353a3.081 3.081 0 0 0-4.352 0 3.082 3.082 0 0 0 0 4.352 3.08 3.08 0 0 0 4.352 0Z"/><path d="M2.61 5.09h6.566a6.948 6.948 0 0 0-1.2 3H2.609a1.5 1.5 0 1 1 0-3Zm5.47 6H2.61a1.5 1.5 0 0 0 0 3h6.933c-.68-.744-1.204-1.724-1.464-3Zm10.879 6H2.608a1.5 1.5 0 0 0 0 3h17a1.5 1.5 0 0 0 1.475-1.227c-.755-.082-1.713-1.19-2.125-1.773Z"/></svg>