<svg width="69" height="23" viewBox="0 0 69 23" fill="none" xmlns="http://www.w3.org/2000/svg">
<path d="M42.8064 17.2189C42.8064 18.6474 41.6483 19.8054 40.2199 19.8054H28.7612C27.344 19.8054 26.1953 18.6568 26.1953 17.2399V5.66777C26.1953 4.30168 27.3027 3.19434 28.6687 3.19434H40.333C41.6991 3.19434 42.8064 4.30168 42.8064 5.66746V17.2189Z" fill="#EBAB1F"/>
<path d="M27.7631 9.65971V13.8811L27.0098 14.0502V9.82886L27.7631 9.65971ZM29.7576 10.2041C29.2927 10.3085 29.0074 10.8319 29.0074 10.8319V10.4385L28.2762 10.5979V13.1164C28.3655 13.0823 28.4623 13.0626 28.5635 13.0626C28.7264 13.0626 28.8777 13.1114 29.0042 13.1948V11.9652C29.0099 11.3763 29.1787 11.0324 29.5314 10.9531C29.8412 10.8836 29.9575 11.1144 29.9524 11.4709V13.394L30.6701 13.232L30.6751 11.3149C30.6814 10.3761 30.3027 10.0817 29.7576 10.2041ZM30.844 10.0212L31.2553 9.92879V9.338L31.9826 9.17605V9.76559L32.5004 9.64906L32.4932 10.2875L31.9748 10.404L31.971 12.0025C31.9745 12.1977 32.0086 12.3186 32.2276 12.2694C32.3131 12.2503 32.3814 12.2287 32.4594 12.1989L32.4613 12.7985C32.2796 12.8846 32.17 12.9194 32.0205 12.9529C31.6045 13.0491 31.2455 12.7784 31.2455 12.2256L31.2481 10.5672L30.8364 10.6596L30.844 10.0212ZM33.3769 11.23C33.3772 11.2974 33.3753 11.3525 33.3863 11.4174C33.4408 11.7413 33.5999 11.9928 33.9273 11.9195C34.228 11.8522 34.3279 11.6523 34.3856 11.4318L35.1477 11.2607C35.0682 11.7491 34.8041 12.3646 33.9721 12.551C33.2259 12.7183 32.7748 12.2876 32.6511 11.5514C32.5155 10.7445 32.7257 9.54224 33.8314 9.29414C34.6475 9.1112 35.0293 9.59392 35.1343 10.2182C35.1759 10.4657 35.1734 10.6496 35.159 10.83L33.3769 11.23ZM34.4357 10.4366C34.4376 10.3811 34.4298 10.3341 34.4238 10.2987C34.3793 10.0337 34.2333 9.82792 33.9113 9.90028C33.5783 9.97484 33.4142 10.2561 33.3838 10.6724L34.4357 10.4366ZM36.9589 9.50872C36.4524 9.6287 36.2081 9.98173 36.2053 10.674L36.1987 11.9897L35.4719 12.1529V8.98152L36.1733 8.82426C36.1824 8.90195 36.199 9.13689 36.1977 9.39438C36.3158 8.98841 36.4778 8.77978 36.9586 8.67202V9.50872H36.9589ZM39.5405 11.2163L39.5364 11.2172L38.8068 11.382C38.7567 11.2908 38.7063 11.1461 38.6843 11.0443C38.581 11.2632 38.4394 11.5154 37.9263 11.6307C37.3812 11.7532 37.0714 11.382 37.0037 11.0236C36.8437 10.1781 37.4504 9.76747 38.0713 9.60927C38.2947 9.55226 38.4826 9.51874 38.6947 9.46518L38.684 9.27503C38.6793 9.04354 38.6258 8.76161 38.2358 8.84933C37.8884 8.92732 37.8702 9.14723 37.8392 9.3073L37.0965 9.47395C37.1059 8.96366 37.3286 8.47123 38.1888 8.27795C38.8619 8.12665 39.4217 8.32651 39.4167 9.15412V10.6584C39.4167 10.6584 39.4346 10.9121 39.4634 11.0343C39.4925 11.1583 39.5405 11.2163 39.5405 11.2163ZM38.6834 9.97922C38.5017 10.0199 38.3488 10.0666 38.2082 10.1167C37.8154 10.2784 37.6829 10.4613 37.7317 10.7194C37.7649 10.8955 37.8921 11.0079 38.1274 10.955C38.6295 10.8422 38.6734 10.367 38.6818 10.0287L38.6834 9.97922ZM42.1621 9.57544C42.1213 10.1844 41.8372 10.7442 41.0196 10.9277C40.3195 11.085 39.8653 10.7157 39.7275 9.98737C39.5608 9.1065 39.8127 7.90518 40.8386 7.67494C41.7363 7.47321 42.0928 8.12195 42.1289 8.5179L41.4234 8.67641C41.3736 8.44272 41.2586 8.2175 40.9325 8.2908C40.4194 8.40607 40.3765 9.29727 40.4686 9.78469C40.5485 10.2076 40.7393 10.3605 41.0008 10.3019C41.2414 10.248 41.3792 10.0638 41.4347 9.73927L42.1621 9.57544ZM30.2275 14.9665L29.1988 14.2664C29.1988 14.2664 29.1984 15.9091 29.1984 15.9846C29.1984 16.0372 29.1555 16.0801 29.1032 16.0801C29.0506 16.0801 29.0083 16.0372 29.0083 15.9846C29.0083 15.9661 29.0061 14.106 29.0061 13.8789C29.0061 13.6355 28.8085 13.4372 28.5651 13.4372C28.3207 13.4372 28.1234 13.6355 28.1234 13.8789L28.124 17.5474C28.124 18.2058 28.66 18.7428 29.3187 18.7428H29.3977C30.0474 18.7428 30.5689 18.2162 30.5689 17.5662C30.5689 17.5662 30.5696 15.6497 30.5696 15.6303C30.5696 15.3756 30.4289 15.1209 30.2275 14.9665ZM27.2425 14.4196C27.0605 14.4634 26.948 14.6464 26.9919 14.8284C27.0358 15.0104 27.2187 15.1228 27.4007 15.079L27.9147 14.9555V14.2579L27.2425 14.4196ZM27.2425 15.3183C27.0605 15.3621 26.948 15.5451 26.9919 15.7271C27.0358 15.9091 27.2187 16.0215 27.4007 15.9777L27.9147 15.8543V15.1566L27.2425 15.3183ZM26.9919 16.6261C27.0354 16.8081 27.2187 16.9206 27.4007 16.8767L27.9147 16.7533V16.0557L27.2425 16.217C27.0605 16.2609 26.9484 16.4441 26.9919 16.6261Z" fill="black"/>
</svg>
