<svg xmlns="http://www.w3.org/2000/svg" viewBox="0 0 25 24"><path d="M3 3.818C3 2.814 3.814 2 4.818 2h16.364C22.186 2 23 2.814 23 3.818v1.1H3v-1.1ZM3 6.09h20l-1.818 5H4.818L3 6.09ZM3.91 12h6.363v3.636c0 .502.407.91.909.91h3.636a.91.91 0 0 0 .91-.91V12h6.363a.91.91 0 0 1 .909.91v4.57A4.091 4.091 0 0 0 18.48 22H7.52A4.09 4.09 0 0 0 3 17.48v-4.57a.91.91 0 0 1 .91-.91Z"/><path d="M6.604 22H3.91a.91.91 0 0 1-.91-.91v-2.694A3.182 3.182 0 0 1 6.604 22ZM23 18.396v2.695a.91.91 0 0 1-.91.909h-2.694A3.182 3.182 0 0 1 23 18.396Z"/><path fill-rule="evenodd" clip-rule="evenodd" d="M11.182 12.91a.91.91 0 0 1 .909-.91h1.818a.91.91 0 0 1 .91.91v1.817a.91.91 0 0 1-.91.91h-1.818a.91.91 0 0 1-.91-.91V12.91Zm.909.908a.91.91 0 1 1 1.818 0 .91.91 0 0 1-1.818 0Z"/></svg>