<svg xmlns="http://www.w3.org/2000/svg" viewBox="0 0 25 24"><path fill-rule="evenodd" clip-rule="evenodd" d="M9.87 2h6.26a1 1 0 1 1 0 2h-.183v1.02a8.375 8.375 0 0 1 2.227.274l.014-.028a5.34 5.34 0 0 1 .984-1.349c.409-.4.931-.756 1.539-.875.634-.125 1.296.024 1.912.517 2.666 2.137 1.042 6.434-1.327 7.292-.54 1.742-1.953 3.76-4.473 5.892-.62.524-1.122.95-1.363 1.26-1.236 1.589-.487 1.721-.487 1.721s4.658 2.583 2.397 2.583H8.63c-2.26 0 2.397-2.583 2.397-2.583s.749-.132-.487-1.722c-.24-.31-.744-.735-1.363-1.26-2.52-2.13-3.933-4.15-4.473-5.891C2.334 9.993.71 5.696 3.377 3.559c.616-.493 1.278-.642 1.912-.517.608.119 1.13.475 1.539.875.412.404.748.89.984 1.349l.014.028a8.375 8.375 0 0 1 2.227-.274V4h-.184a1 1 0 1 1 0-2Zm11.652 6.735c.461-.36.879-.929.982-1.593.15-.955-.069-1.868-.719-2.389-.315-.252-.584-.29-.822-.244-.266.052-.558.224-.847.508a3.806 3.806 0 0 0-.619.81c1.145.645 1.869 1.649 2.025 2.908ZM6.502 5.827c-1.145.645-1.868 1.649-2.024 2.908-.461-.36-.879-.929-.982-1.593-.15-.955.069-1.868.719-2.389.315-.252.584-.29.822-.244.266.052.558.224.847.508.242.237.455.525.619.81Zm6.079 1.497a.6.6 0 0 1 1.066 0l.839 1.623a.6.6 0 0 0 .435.317l1.803.296a.6.6 0 0 1 .33 1.014l-1.284 1.3a.6.6 0 0 0-.167.512l.275 1.806a.6.6 0 0 1-.862.627l-1.633-.82a.6.6 0 0 0-.538 0l-1.633.82a.6.6 0 0 1-.863-.627l.275-1.806a.6.6 0 0 0-.166-.512l-1.284-1.3a.6.6 0 0 1 .33-1.014l1.802-.296a.6.6 0 0 0 .435-.317l.84-1.623Z"/></svg>