<svg xmlns="http://www.w3.org/2000/svg" viewBox="0 0 25 24"><path fill-rule="evenodd" clip-rule="evenodd" d="M3.28 8.98A2.287 2.287 0 0 0 5.56 6.7a2.287 2.287 0 0 0 2.28 2.28 2.287 2.287 0 0 0 2.28-2.28 2.287 2.287 0 0 0 2.28 2.28 2.287 2.287 0 0 0 2.28-2.28 2.287 2.287 0 0 0 2.28 2.28 2.287 2.287 0 0 0 2.28-2.28 2.287 2.287 0 0 0 2.28 2.28A2.287 2.287 0 0 0 23.8 6.7V4.834a1 1 0 0 0-.293-.707l-2.834-2.834A1 1 0 0 0 19.966 1H4.834a1 1 0 0 0-.707.293L1.293 4.127A1 1 0 0 0 1 4.834V6.7a2.287 2.287 0 0 0 2.28 2.28ZM19.1 10c.684.342 1.482.57 2.28.57.171 0 .37-.029.57-.057.2-.029.399-.057.57-.057V22.11a1 1 0 0 1-1 1H11V16.3S9 15.2 8 13c-1 2.2-3 3.3-3 3.3v6.81H3a1 1 0 0 1-1-1V10.456c1.085.362 2.441.033 3.42-.456.684.342 1.482.57 2.28.57.798 0 1.596-.228 2.28-.57.684.342 1.482.57 2.28.57.798 0 1.596-.228 2.28-.57.684.342 1.482.57 2.28.57.798 0 1.596-.228 2.28-.57ZM17 13a2 2 0 0 0-2 2v3h4v-3a2 2 0 0 0-2-2Z"/></svg>