<svg xmlns="http://www.w3.org/2000/svg" viewBox="0 0 25 24"><g clip-path="url(#clip0_527_64357)"><path d="M10.849 2.603A.364.364 0 0 0 10.573 2H5.895a.5.5 0 0 0-.377.171L.724 7.662a.5.5 0 0 0 .377.829h4.422a.5.5 0 0 0 .378-.173l4.948-5.715Zm-3.017 5.06a.5.5 0 0 0 .378.827h8.584a.5.5 0 0 0 .378-.828L14.96 5.107l-2.08-2.402a.5.5 0 0 0-.755 0L8.79 6.556l-.958 1.106ZM1.24 9.517a.5.5 0 0 0-.362.845L10.78 20.71 5.79 9.81a.5.5 0 0 0-.454-.292H1.24Zm16.674.652a.461.461 0 0 0-.42-.652H7.572a.5.5 0 0 0-.455.708L12.47 21.92l.037.079 5.408-11.83ZM14.24 20.695l9.882-10.33a.5.5 0 0 0-.361-.846h-4.09a.5.5 0 0 0-.455.292L14.24 20.695ZM23.9 8.49a.5.5 0 0 0 .377-.829l-4.794-5.488a.5.5 0 0 0-.377-.17h-4.377a.5.5 0 0 0-.378.826l4.603 5.316a1 1 0 0 0 .756.346h4.19Z"/></g><defs><clipPath id="clip0_527_64357"><path transform="translate(.5)" d="M0 0h24v24H0z"/></clipPath></defs></svg>