<svg xmlns="http://www.w3.org/2000/svg" viewBox="0 0 24 24"><path fill-rule="evenodd" clip-rule="evenodd" d="M2 11.626V13h-.608c-.217 0-.392.152-.392.34v3.32c0 .188.175.34.392.34H2v5c0 .552.42 1 .938 1h3.204c.16 0 .29-.138.29-.308 0-2.634 3.618-4.5 4.74-5.016a.779.779 0 0 1 .655 0c1.123.516 4.742 2.382 4.742 5.016 0 .17.13.308.29.308h3.203c.518 0 .938-.448.938-1v-5h.608c.217 0 .392-.152.392-.34v-3.32c0-.188-.175-.34-.392-.34h-.294v-1.374c0-3.41-2.595-4.803-5.076-6.134-2.075-1.113-4.07-2.184-4.399-4.358-.011-.076-.09-.134-.182-.134s-.17.058-.182.134c-.328 2.174-2.324 3.245-4.4 4.358C4.596 6.822 2 8.215 2 11.626ZM4 13a1 1 0 0 0-1 1v2h2v-2a1 1 0 0 0-1-1Zm5 0a1 1 0 0 0-1 1v2h2v-2a1 1 0 0 0-1-1Zm4 1a1 1 0 1 1 2 0v2h-2v-2Zm6-1a1 1 0 0 0-1 1v2h2v-2a1 1 0 0 0-1-1Z"/></svg>