<svg xmlns="http://www.w3.org/2000/svg" viewBox="0 0 24 24"><g clip-path="url(#clip0_622_48273)"><path d="M19.427 22.805a.929.929 0 0 0 .325-.725l-.107-18.81 3.67.524c.436.062.739.47.677.912L21.535 22.29a.799.799 0 0 1-.9.687l-1.208-.173Zm-2.508-1.515L18 21.284a.8.8 0 0 0 .791-.808l-.1-17.677a.8.8 0 0 0-.8-.799l-3.502.02 2.74 18.544a.89.89 0 0 1-.211.726Z"/><path fill-rule="evenodd" clip-rule="evenodd" d="M.678 3.826a.805.805 0 0 0-.67.917l2.596 17.568c.065.442.47.746.905.68l11.812-1.783a.805.805 0 0 0 .67-.918L13.394 2.722a.799.799 0 0 0-.905-.68L.678 3.827Zm10.112 11.28c1.458-.223 2.337-1.344 2.113-2.865C12.522 9.7 7.2 7.105 7.2 7.105l-.027.004s-4.327 4.064-3.949 6.61c.227 1.517 1.397 2.326 2.853 2.105.697-.106 1.451-.766 1.826-1.233 0 0-.144 1.814-.637 3.456-.06.199 3.187-.296 3.064-.465-.948-1.303-1.63-3.111-1.63-3.111.495.356 1.334.749 2.089.635Z"/></g><defs><clipPath id="clip0_622_48273"><path d="M0 0h24v24H0z"/></clipPath></defs></svg>