<svg xmlns="http://www.w3.org/2000/svg" viewBox="0 0 24 24"><path d="M11.5 12.765a.652.652 0 0 0 1.002 0c.897-1.014 2.729-3.12 3.185-3.927C16.345 7.674 17 6.712 17 5.036 17 3.359 15.813 2 14.348 2c-1.026 0-1.906.672-2.348 1.645C11.559 2.672 10.678 2 9.653 2 8.187 2 7 3.359 7 5.036c0 1.676.656 2.638 1.313 3.802.457.807 2.288 2.913 3.186 3.927Z"/><path d="M11.585 11.76c-1.222-.66-3.747-1.997-4.636-2.248-1.28-.36-2.373-.778-3.907-.29-1.534.488-2.388 2.147-1.909 3.708a2.914 2.914 0 0 0 2.274 2.018 2.983 2.983 0 0 0-.738 2.976c.48 1.56 2.111 2.427 3.646 1.94 1.533-.487 2.198-1.465 3.048-2.504.59-.72 1.916-3.282 2.55-4.533a.8.8 0 0 0-.329-1.066Z"/><path d="M20.958 9.222c-1.534-.488-2.628-.07-3.909.29-.888.25-3.415 1.587-4.635 2.248a.805.805 0 0 0-.328 1.067c.634 1.251 1.96 3.813 2.55 4.533.85 1.038 1.516 2.017 3.05 2.504 1.534.489 3.166-.382 3.646-1.942a2.979 2.979 0 0 0-.738-2.974 2.913 2.913 0 0 0 2.273-2.018c.478-1.561-.375-3.22-1.91-3.708Z"/><path d="M14.84 22.771c.345-.427.696-.855 1.044-1.287a.48.48 0 0 0-.066-.69c-2.491-2.128-3.288-9.275-3.288-9.275-.029-.267-.296-.49-.647-.516-.395-.03-.746.197-.784.509 0 0-.08 2.645-.093 3.59-.008.421-.22 5.226 2.845 7.744.283.232.768.197.988-.075Z"/></svg>