<svg xmlns="http://www.w3.org/2000/svg" viewBox="0 0 24 24"><path d="M11.4 20v-4.62c-1.703-.272-3-1.682-3-3.38 0-1.7 1.297-3.11 3-3.382V4H1.2C.537 4 0 4.512 0 5.143V8.57h2.4c.662 0 1.2.512 1.2 1.143v4.571c0 .631-.538 1.143-1.2 1.143H0v3.43C0 19.487.537 20 1.2 20h10.2Zm1.2 0h10.2c.663 0 1.2-.512 1.2-1.143v-3.429h-2.4c-.662 0-1.2-.512-1.2-1.143V9.714c0-.631.538-1.143 1.2-1.143H24V5.143C24 4.512 23.463 4 22.8 4H12.6v4.618c1.703.272 3 1.682 3 3.381 0 1.7-1.297 3.11-3 3.382V20Z"/><path d="M24 9.714h-2.4v4.571H24V9.714ZM0 14.285h2.4V9.714H0v4.571ZM14.4 12c0 1.065-.765 1.96-1.8 2.213V9.786c1.035.253 1.8 1.148 1.8 2.213Zm-3 2.213V9.786c-1.035.254-1.8 1.149-1.8 2.213 0 1.065.765 1.96 1.8 2.214Z"/></svg>