<svg xmlns="http://www.w3.org/2000/svg" viewBox="0 0 24 24"><path fill-rule="evenodd" clip-rule="evenodd" d="M1.043 3C.467 3 0 3.448 0 4v12c0 .552.467 1 1.043 1h21.913c.577 0 1.044-.448 1.044-1V4c0-.552-.467-1-1.044-1H1.043Zm17.835 7.106c0 3.372-3.059 6.106-6.83 6.106-3.773 0-6.83-2.734-6.83-6.106S8.274 4 12.047 4c3.771 0 6.83 2.734 6.83 6.106Z"/><path d="m9.615 8.77 1.83-1.226V6.131L9.716 5c-.814.377-1.525.848-2.033 1.508l.61 1.884 1.32.377Zm1.22 3.297-.814 1.037.61 1.884c.407.094.813.189 1.322.189.508 0 .914-.095 1.32-.189l.61-1.884-.812-1.037h-2.236Zm4.776-3.769.61-1.885A5.202 5.202 0 0 0 14.087 5l-1.626 1.13v1.32l1.83 1.225 1.32-.377ZM9.31 9.523l-1.321-.377-1.728 1.13c.102.849.406 1.603.813 2.357h2.134l.813-1.037-.711-2.073Zm5.285 0-.711 2.073.813 1.037h2.134c.407-.66.712-1.508.813-2.356l-1.728-1.13-1.32.376Zm4.253 9.977c-1.076 0-2.054-.525-2.446-1.35 0-.075 0-.15-.098-.15H7.598c0 .075 0 .15-.098.15-.293.825-1.272 1.35-2.348 1.35-.587 0-.978.3-.978.75s.391.75.978.75h13.696c.587 0 .978-.3.978-.75s-.391-.75-.978-.75Z"/></svg>