<svg xmlns="http://www.w3.org/2000/svg" viewBox="0 0 25 24"><path d="M10.55 6.11 10.25 0H6.5c-.225 0-.45.072-.6.287-.15.216-.15.36-.15.576l1.35 6.97a10.288 10.288 0 0 1 3.45-1.725Zm2.7-.36c.45 0 .825 0 1.275.072L14.75 0h-3l.225 5.822c.45-.072.825-.072 1.275-.072Zm6.15 2.084L20.75.863a.543.543 0 0 0-.15-.576C20.45.144 20.225 0 20 0h-3.75l-.225 6.11c1.2.359 2.325.934 3.375 1.724Z"/><path fill-rule="evenodd" clip-rule="evenodd" d="M5 15.094c0-4.385 3.675-7.906 8.25-7.906s8.25 3.521 8.25 7.906c0 4.384-3.675 7.906-8.25 7.906S5 19.478 5 15.094Zm9.898-2.596-1.004-2.05c-.252-.514-1.036-.514-1.288 0l-1.004 2.05a.705.705 0 0 1-.564.381l-2.41.254c-.603.064-.845.757-.397 1.138l1.788 1.521a.63.63 0 0 1 .216.616l-.485 2.208c-.121.553.514.981 1.042.703l2.11-1.11a.755.755 0 0 1 .697 0l2.11 1.11c.527.278 1.162-.15 1.041-.703l-.485-2.208a.63.63 0 0 1 .216-.616l1.788-1.521c.448-.381.206-1.075-.397-1.138l-2.41-.254a.705.705 0 0 1-.564-.38Z"/></svg>