<svg width="69" height="23" viewBox="0 0 69 23" fill="none" xmlns="http://www.w3.org/2000/svg">
<path d="M15.3787 7.29736H10.7012V15.7031H15.3787V7.29736Z" fill="#FF5F00"/>
<path d="M10.9982 11.4998C10.9974 10.6903 11.1809 9.89122 11.5346 9.16307C11.8884 8.43492 12.4031 7.79679 13.04 7.29699C12.2514 6.67712 11.3042 6.29163 10.3069 6.18458C9.30956 6.07754 8.30223 6.25325 7.40003 6.69164C6.49783 7.13004 5.73717 7.81342 5.205 8.66368C4.67283 9.51394 4.39063 10.4968 4.39062 11.4998C4.39062 12.5029 4.67283 13.4857 5.205 14.336C5.73717 15.1863 6.49783 15.8697 7.40003 16.3081C8.30223 16.7464 9.30956 16.9222 10.3069 16.8151C11.3042 16.7081 12.2514 16.3226 13.04 15.7027C12.4031 15.2029 11.8884 14.5648 11.5346 13.8366C11.1809 13.1085 10.9975 12.3094 10.9982 11.4998V11.4998Z" fill="#EB001B"/>
<path d="M21.6901 11.5001C21.6901 12.5031 21.408 13.486 20.8758 14.3362C20.3437 15.1865 19.583 15.8699 18.6809 16.3083C17.7787 16.7467 16.7714 16.9224 15.774 16.8154C14.7767 16.7083 13.8296 16.3228 13.041 15.703C13.6773 15.2026 14.1916 14.5644 14.5453 13.8364C14.899 13.1083 15.0828 12.3095 15.0828 11.5001C15.0828 10.6907 14.899 9.89185 14.5453 9.16381C14.1916 8.43577 13.6773 7.79753 13.041 7.29723C13.8296 6.67736 14.7767 6.29187 15.774 6.18483C16.7714 6.07778 17.7787 6.2535 18.6809 6.6919C19.583 7.1303 20.3437 7.81368 20.8758 8.66394C21.408 9.51421 21.6901 10.497 21.6901 11.5001V11.5001Z" fill="#F79E1B"/>
<path d="M31.0336 13.4069V11.1614C31.0336 10.3024 30.5104 9.7399 29.6122 9.7399C29.1631 9.7399 28.6747 9.88815 28.339 10.3765C28.0774 9.96664 27.7024 9.7399 27.1399 9.7399C26.7649 9.7399 26.3899 9.85327 26.0934 10.2631V9.81403H25.3086V13.4069H26.0934V11.423C26.0934 10.7864 26.4292 10.4855 26.9524 10.4855C27.4756 10.4855 27.7373 10.8213 27.7373 11.423V13.4069H28.5221V11.423C28.5221 10.7864 28.8971 10.4855 29.3811 10.4855C29.9043 10.4855 30.1659 10.8213 30.1659 11.423V13.4069H31.0336ZM42.6756 9.81403H41.4024V8.72832H40.6175V9.81403H39.9068V10.5248H40.6175V12.1729C40.6175 12.997 40.9533 13.481 41.8515 13.481C42.1872 13.481 42.5622 13.3676 42.8238 13.2194L42.5971 12.5436C42.3703 12.6918 42.1087 12.731 41.9212 12.731C41.5462 12.731 41.398 12.5043 41.398 12.1337V10.5248H42.6712V9.81403H42.6756ZM49.3381 9.73554C48.8889 9.73554 48.5881 9.96228 48.4006 10.2588V9.80967H47.6157V13.4025H48.4006V11.3794C48.4006 10.782 48.6622 10.4419 49.1506 10.4419C49.2988 10.4419 49.4863 10.4811 49.6389 10.516L49.8656 9.76606C49.7087 9.73554 49.4863 9.73554 49.3381 9.73554ZM39.2702 10.1105C38.8952 9.84891 38.372 9.73554 37.8095 9.73554C36.9113 9.73554 36.3139 10.1847 36.3139 10.8954C36.3139 11.4927 36.763 11.8328 37.5479 11.9418L37.9229 11.9811C38.3327 12.0552 38.5595 12.1686 38.5595 12.3561C38.5595 12.6177 38.2586 12.8052 37.7354 12.8052C37.2121 12.8052 36.7979 12.6177 36.5363 12.4302L36.1613 13.0275C36.5712 13.3284 37.1337 13.4767 37.6961 13.4767C38.7426 13.4767 39.3443 12.9883 39.3443 12.3168C39.3443 11.6802 38.856 11.3445 38.1104 11.2311L37.7354 11.1919C37.3996 11.1526 37.138 11.0785 37.138 10.8561C37.138 10.5945 37.3996 10.4463 37.8139 10.4463C38.263 10.4463 38.7121 10.6338 38.9388 10.7471L39.2702 10.1105ZM60.1515 9.73554C59.7024 9.73554 59.4016 9.96228 59.2141 10.2588V9.80967H58.4292V13.4025H59.2141V11.3794C59.2141 10.782 59.4757 10.4419 59.964 10.4419C60.1123 10.4419 60.2998 10.4811 60.4524 10.516L60.6791 9.77479C60.5265 9.73554 60.3041 9.73554 60.1515 9.73554ZM50.1229 11.6105C50.1229 12.6962 50.8729 13.481 52.0327 13.481C52.5559 13.481 52.9309 13.3676 53.3059 13.0712L52.9309 12.4346C52.6301 12.6613 52.3336 12.7703 51.9935 12.7703C51.3569 12.7703 50.9078 12.3212 50.9078 11.6105C50.9078 10.9346 51.3569 10.4855 51.9935 10.4506C52.3292 10.4506 52.6301 10.564 52.9309 10.7864L53.3059 10.1498C52.9309 9.84891 52.5559 9.7399 52.0327 9.7399C50.8729 9.73554 50.1229 10.5248 50.1229 11.6105ZM57.3828 11.6105V9.81403H56.5979V10.2631C56.3363 9.9274 55.9613 9.7399 55.473 9.7399C54.4614 9.7399 53.6765 10.5248 53.6765 11.6105C53.6765 12.6962 54.4614 13.481 55.473 13.481C55.9962 13.481 56.3712 13.2935 56.5979 12.9578V13.4069H57.3828V11.6105ZM54.5006 11.6105C54.5006 10.9739 54.9105 10.4506 55.5863 10.4506C56.2229 10.4506 56.672 10.939 56.672 11.6105C56.672 12.2471 56.2229 12.7703 55.5863 12.7703C54.9148 12.7311 54.5006 12.2427 54.5006 11.6105ZM45.1086 9.73554C44.0621 9.73554 43.3122 10.4855 43.3122 11.6061C43.3122 12.731 44.0621 13.4767 45.1478 13.4767C45.6711 13.4767 46.1943 13.3284 46.6085 12.9883L46.2335 12.4258C45.9327 12.6526 45.5577 12.8008 45.1871 12.8008C44.6987 12.8008 44.2147 12.5741 44.1014 11.9418H46.7568C46.7568 11.8285 46.7568 11.7543 46.7568 11.641C46.7917 10.4855 46.1158 9.73554 45.1086 9.73554ZM45.1086 10.4114C45.5969 10.4114 45.9327 10.7122 46.0068 11.2704H44.1363C44.2104 10.7864 44.5461 10.4114 45.1086 10.4114ZM64.6077 11.6105V8.39258H63.8229V10.2631C63.5613 9.9274 63.1863 9.7399 62.6979 9.7399C61.6863 9.7399 60.9015 10.5248 60.9015 11.6105C60.9015 12.6962 61.6863 13.481 62.6979 13.481C63.2212 13.481 63.5961 13.2935 63.8229 12.9578V13.4069H64.6077V11.6105ZM61.7256 11.6105C61.7256 10.9739 62.1355 10.4506 62.8113 10.4506C63.4479 10.4506 63.897 10.939 63.897 11.6105C63.897 12.2471 63.4479 12.7703 62.8113 12.7703C62.1355 12.7311 61.7256 12.2427 61.7256 11.6105ZM35.4506 11.6105V9.81403H34.6657V10.2631C34.4041 9.9274 34.0291 9.7399 33.5408 9.7399C32.5292 9.7399 31.7444 10.5248 31.7444 11.6105C31.7444 12.6962 32.5292 13.481 33.5408 13.481C34.064 13.481 34.439 13.2935 34.6657 12.9578V13.4069H35.4506V11.6105ZM32.5336 11.6105C32.5336 10.9739 32.9434 10.4506 33.6193 10.4506C34.2559 10.4506 34.705 10.939 34.705 11.6105C34.705 12.2471 34.2559 12.7703 33.6193 12.7703C32.9434 12.7311 32.5336 12.2427 32.5336 11.6105Z" fill="white"/>
</svg>
