<svg xmlns="http://www.w3.org/2000/svg" viewBox="0 0 24 24"><path fill-rule="evenodd" clip-rule="evenodd" d="M3.172 3.172C2 4.343 2 6.229 2 10v4c0 3.771 0 5.657 1.172 6.828C4.343 22 6.229 22 10 22h4c3.771 0 5.657 0 6.828-1.172C22 19.657 22 17.771 22 14v-4c0-3.771 0-5.657-1.172-6.828C19.657 2 17.771 2 14 2h-4C6.229 2 4.343 2 3.172 3.172ZM14 4h-3v16h3c1.942 0 3.198-.004 4.123-.129.867-.116 1.139-.304 1.291-.457.152-.152.34-.424.457-1.291.125-.925.129-2.18.129-4.123v-4c0-1.942-.004-3.198-.129-4.123-.116-.867-.304-1.139-.457-1.291-.152-.153-.424-.34-1.291-.457C17.198 4.004 15.943 4 14 4ZM5 7a1 1 0 0 1 1-1h1a1 1 0 1 1 0 2H6a1 1 0 0 1-1-1Zm1 3a1 1 0 1 0 0 2h1a1 1 0 1 0 0-2H6Zm-1 5a1 1 0 0 1 1-1h1a1 1 0 1 1 0 2H6a1 1 0 0 1-1-1Z"/></svg>