<svg width="69" height="23" viewBox="0 0 69 23" fill="none" xmlns="http://www.w3.org/2000/svg">
<path d="M53.5687 16.6908C52.6164 16.6908 51.6641 16.6908 50.6976 16.6908C50.5926 16.2367 50.4799 15.7924 50.3909 15.3444C50.354 15.1584 50.2879 15.0863 50.0572 15.089C48.9059 15.1023 47.7544 15.099 46.603 15.0908C46.4287 15.0896 46.3595 15.1413 46.3064 15.2842C46.1478 15.7111 45.9744 16.1338 45.7969 16.5547C45.7728 16.6119 45.693 16.6903 45.6383 16.6907C44.6005 16.6988 43.5626 16.6967 42.4949 16.6967C42.6895 16.2751 42.8738 15.8726 43.0608 15.4712C44.3989 12.5992 45.7375 9.72743 47.0761 6.8556C47.366 6.2336 47.8006 5.97314 48.5482 5.9731C49.3813 5.97305 50.2144 5.97309 51.0689 5.97309C51.1522 6.32322 51.2361 6.66824 51.3163 7.01394C51.9748 9.85209 52.6317 12.6905 53.2917 15.5284C53.3763 15.8919 53.476 16.2526 53.5687 16.6145C53.5687 16.64 53.5687 16.6654 53.5687 16.6908ZM49.811 12.8822C49.505 11.5625 49.2031 10.2605 48.9013 8.95853C48.889 8.95636 48.8766 8.95419 48.8643 8.95202C48.3383 10.2573 47.8123 11.5625 47.2804 12.8822C48.1395 12.8822 48.9619 12.8822 49.811 12.8822Z" fill="white"/>
<path d="M41.0609 5.78223C41.4398 5.84552 41.8216 5.89755 42.1968 5.9754C42.5391 6.04644 42.8743 6.14546 43.2382 6.23869C43.0548 7.01016 42.8757 7.76315 42.7006 8.49989C42.2206 8.37325 41.7617 8.22743 41.2901 8.13379C40.645 8.00571 39.9841 7.9569 39.3388 8.11867C39.0764 8.18443 38.8109 8.3107 38.6044 8.46988C38.2501 8.74292 38.2454 9.13597 38.5838 9.42263C38.8171 9.62028 39.0936 9.78256 39.3699 9.93204C39.9981 10.2719 40.6577 10.5674 41.2682 10.9304C41.9872 11.3579 42.5117 11.9457 42.6217 12.7404C42.8165 14.146 42.2387 15.2531 40.9262 16.0364C40.1009 16.5289 39.1669 16.7489 38.1937 16.8304C36.8349 16.9441 35.503 16.8072 34.2046 16.4235C34.1176 16.3978 34.0328 16.3657 33.948 16.3344C33.9227 16.3251 33.9006 16.3086 33.8618 16.2868C34.0452 15.5142 34.2289 14.7404 34.4177 13.9449C34.639 14.0318 34.8468 14.119 35.0591 14.1959C36.0735 14.5636 37.121 14.7318 38.2067 14.5488C38.4892 14.5012 38.7772 14.389 39.0166 14.2446C39.5362 13.9313 39.586 13.3426 39.1129 12.9746C38.802 12.7327 38.4283 12.554 38.074 12.3599C37.5206 12.0567 36.9328 11.7983 36.4092 11.4589C35.738 11.0239 35.2518 10.4439 35.1597 9.67297C35.0217 8.51872 35.4979 7.58148 36.4828 6.85323C37.3397 6.21959 38.3572 5.93839 39.4411 5.82029C39.5013 5.81372 39.56 5.79519 39.6193 5.78223C40.0998 5.78223 40.5804 5.78223 41.0609 5.78223Z" fill="white"/>
<path d="M29.8959 5.98182C29.7345 6.33096 29.5818 6.66385 29.4271 6.99596C27.9494 10.167 26.4699 13.3374 24.9983 16.5107C24.9282 16.6619 24.8424 16.7016 24.672 16.7003C23.7394 16.6934 22.8065 16.6906 21.8741 16.7022C21.6763 16.7046 21.6119 16.6423 21.5664 16.4827C20.7757 13.711 19.9719 10.9422 19.1902 8.16846C19.0468 7.65958 18.7597 7.31203 18.2213 7.09873C17.3582 6.75682 16.4622 6.51664 15.5484 6.32142C15.5079 6.31278 15.4677 6.30334 15.4297 6.2948C15.4342 5.97311 15.4342 5.97309 15.7744 5.97309C17.4065 5.97309 19.0387 5.97276 20.6709 5.97323C21.445 5.97346 22.0038 6.37801 22.1502 7.06732C22.5645 9.01871 22.9701 10.9716 23.3793 12.9239C23.3972 13.0093 23.4176 13.0942 23.4448 13.2144C23.4871 13.1429 23.5166 13.1027 23.5359 13.0588C24.5497 10.7522 25.5637 8.44576 26.5722 6.13736C26.6273 6.01134 26.6952 5.9686 26.8464 5.96968C27.7932 5.97643 28.74 5.97295 29.6868 5.97342C29.748 5.97345 29.8092 5.9782 29.8959 5.98182Z" fill="white"/>
<path d="M28.6598 16.697C29.5125 13.1123 30.3592 9.55277 31.2079 5.98454C32.2404 5.98454 33.2606 5.98454 34.3005 5.98454C34.1717 6.52801 34.0459 7.06109 33.9192 7.59402C33.2186 10.5413 32.5153 13.4882 31.8224 16.4369C31.7743 16.6418 31.6936 16.7069 31.4571 16.7028C30.6096 16.6881 29.7616 16.697 28.9138 16.697C28.8378 16.697 28.7617 16.697 28.6598 16.697Z" fill="white"/>
</svg>
